<?xml version="1.0" encoding="iso-8859-1"?>
<!-- Generator: Adobe Illustrator 19.0.0, SVG Export Plug-In . SVG Version: 6.00 Build 0)  -->
<svg xmlns="http://www.w3.org/2000/svg" xmlns:xlink="http://www.w3.org/1999/xlink" version="1.1" id="Capa_1" x="0px" y="0px" viewBox="0 0 512 512" style="enable-background:new 0 0 512 512;" xml:space="preserve" width="512px" height="512px">
<g>
	<g>
		<path d="M487.832,503.141l-64.125-352.689c-0.649-3.573-3.761-6.17-7.393-6.17h-56.611v-43.585c0-4.15-3.364-7.515-7.515-7.515    s-7.515,3.365-7.515,7.515v43.585H327.64v-97.19h17.033v18.035c0,4.15,3.364,7.515,7.515,7.515s7.515-3.365,7.515-7.515v-25.55    c0-1.971-0.808-3.921-2.2-5.313L325.44,2.201C324.029,0.792,322.118,0,320.125,0h-128.25c-1.974,0-3.919,0.806-5.314,2.201    l-32.063,32.063c-1.393,1.392-2.2,3.345-2.2,5.313v104.705H95.687c-3.632,0-6.743,2.597-7.393,6.17L24.168,503.141    c-0.826,4.545,2.78,8.859,7.393,8.859h448.877C485.051,512,488.657,507.686,487.832,503.141z M194.988,15.029h122.025    l17.033,17.033H177.955L194.988,15.029z M312.611,47.092v97.19H199.389v-97.19H312.611z M167.327,47.092h17.033v97.19h-17.033    V47.092z M40.565,496.971l61.393-337.659H410.04l61.393,337.659H40.565z" fill="#333333"/>
	</g>
</g>
<g>
	<g>
		<path d="M256,184.36c-79.281,0-143.781,64.5-143.781,143.781S176.719,471.922,256,471.922s143.781-64.5,143.781-143.781    S335.281,184.36,256,184.36z M256,456.892c-70.994,0-128.751-57.758-128.751-128.751S185.006,199.389,256,199.389    s128.751,57.758,128.751,128.751S326.994,456.892,256,456.892z" fill="#333333"/>
	</g>
</g>
<g>
	<g>
		<path d="M203.898,240.47c-1.917,0-4.048-0.245-5.919,0.245c-3.264,0.856-5.604,3.898-5.604,7.269V404.29    c0,10.773,8.765,19.538,19.538,19.538c10.773,0,19.538-8.765,19.538-19.538v-60.618h8.517c4.151,0,7.515-3.365,7.515-7.515    v-52.102C247.483,260.022,227.931,240.47,203.898,240.47z M232.454,328.642h-8.517c-4.151,0-7.515,3.365-7.515,7.515v68.133    c0,2.486-2.023,4.509-4.509,4.509c-2.486,0-4.509-2.023-4.509-4.509V255.713c14.098,1.733,25.049,13.783,25.049,28.341V328.642z" fill="#333333"/>
	</g>
</g>
<g>
	<g>
		<path d="M320.125,240.47c-4.151,0-7.515,3.365-7.515,7.515v32.564h-9.018v-32.564c0-4.15-3.364-7.515-7.515-7.515    c-4.151,0-7.515,3.365-7.515,7.515v32.564h-9.018v-32.564c0-4.15-3.364-7.515-7.515-7.515s-7.515,3.365-7.515,7.515v48.094    c0,8.663,4.731,16.436,12.023,20.522v87.689c0,10.773,8.765,19.538,19.538,19.538c10.773,0,19.538-8.765,19.538-19.538V316.6    c7.292-4.087,12.023-11.86,12.023-20.522v-48.094C327.64,243.834,324.276,240.47,320.125,240.47z M312.611,296.078    c0,3.876-2.626,7.26-6.385,8.229c-3.319,0.856-5.638,3.849-5.638,7.276v92.706c0,2.486-2.023,4.509-4.509,4.509    c-2.486,0-4.509-2.023-4.509-4.509v-92.705c0-3.428-2.319-6.421-5.638-7.276c-3.759-0.97-6.385-4.353-6.385-8.229v-0.502h33.065    V296.078z" fill="#333333"/>
	</g>
</g>
<g>
</g>
<g>
</g>
<g>
</g>
<g>
</g>
<g>
</g>
<g>
</g>
<g>
</g>
<g>
</g>
<g>
</g>
<g>
</g>
<g>
</g>
<g>
</g>
<g>
</g>
<g>
</g>
<g>
</g>
</svg>
