<?xml version="1.0" encoding="utf-8"?>
<!-- Generator: Adobe Illustrator 22.0.1, SVG Export Plug-In . SVG Version: 6.00 Build 0)  -->
<svg version="1.1" id="Layer_1" xmlns="http://www.w3.org/2000/svg" xmlns:xlink="http://www.w3.org/1999/xlink" x="0px" y="0px"
	 viewBox="0 0 512 512" style="enable-background:new 0 0 512 512;" xml:space="preserve">
<style type="text/css">
	.st0{fill:#FFFFFF;}
</style>
<g>
	<g>
		<g>
			<path class="st0" d="M460.7,212.5c-0.5-32.6-27.1-58.8-59.7-58.8h-42.7v-44.1c14.7-3.8,25.1-16.8,25.6-32
				c-0.7-19.1-16.8-34-35.9-33.4c-4,0-8,0.6-11.8,1.9c-4.2-18.1-20.5-30.8-39.2-30.4c-10.5-0.1-20.6,3.9-28.3,11
				C251.7-0.1,216.1-8.1,189.2,9c-7.1,4.5-13.2,10.6-17.7,17.7c-8.5-7.3-19.3-11.3-30.5-11.2c-19.4-0.9-36.8,11.7-42.1,30.3
				c-3.8-1.2-7.8-1.8-11.8-1.8C68,43.4,51.9,58.4,51.2,77.5c0,0,0,0,0,0c0.1,11.8,6.7,22.7,17.1,28.3v380.5
				c0,14.1,11.5,25.6,25.6,25.6h238.9c14.1,0,25.6-11.5,25.6-25.6v-17.1H401c33,0,59.7-26.7,59.7-59.7V213.4
				C460.8,213.1,460.8,212.8,460.7,212.5z M341.3,251.8c0-11.8-9.5-21.3-21.3-21.3h-8.5c-11.5,0-20.9,9.1-21.3,20.6v201.3h51.2v17.1
				H85.4v-17.1h51.2V251.8c0-11.8-9.5-21.3-21.3-21.3h-8.5c-11.8,0-21.3,9.5-21.3,21.3v-31.9c6.3-4.2,13.7-6.5,21.3-6.5h8.5
				c11.6,0,22.6,5.3,29.9,14.3c7.3-9.1,18.2-14.3,29.9-14.3h8.5c11.7,0,22.7,5.4,29.9,14.6c7.2-9.2,18.2-14.6,29.9-14.6h8.5
				c11.6,0,22.6,5.3,29.9,14.4c7.3-9.1,18.2-14.4,29.9-14.4h8.5c7.6,0,15,2.2,21.3,6.5L341.3,251.8L341.3,251.8z M348,94h-32.3
				c-14.1,0-25.6,11.5-25.6,25.6v15.6c0,0.9,0,1.7,0,2.6c-0.8,9.9-7,18.6-16,22.6c-0.8,0.4-1.7,0.7-2.6,0.9
				c-0.8,0.3-1.6,0.4-2.4,0.5h-2.3c-1.4,0.1-2.8,0.1-4.3,0h-2.2c-0.8-0.1-1.6-0.3-2.3-0.5c-0.9-0.2-1.8-0.5-2.6-0.9
				c-9.2-3.9-15.5-12.6-16.4-22.6c0-0.9,0-1.7,0-2.6v-15.6c0-14.1-11.5-25.6-25.6-25.6h-17.1c-14.1,0-25.6,11.5-25.6,25.6v7.5
				c0.2,4.4-2.7,8.4-7,9.6c-2.5,0.4-5.1-0.3-7-2c-1.9-1.6-3.1-4-3.1-6.6c0-4.7-3.8-8.5-8.5-8.5s-8.5,3.8-8.5,8.5v33.1
				c0,2.8-1.1,5.5-3.1,7.4c-0.3,0.3-0.7,0.6-1.1,0.9c-0.7,0.5-1.6,0.8-2.5,1H128c-1.4-0.1-2.7-0.5-3.8-1.2c-0.4-0.2-0.8-0.5-1.1-0.9
				c-2-2-3.1-4.6-3.1-7.4v-41.5c0-14.1-11.5-25.6-25.6-25.6h-7.3h-1.8c-9.1,0-16.6-7.1-17.1-16.1c0.6-9.8,9.1-17.2,18.9-16.6
				c5.9-0.1,11.5,2.5,15.3,7.1c3,3.6,8.4,4.1,12,1c3-2.5,3.9-6.7,2.2-10.2c-0.9-2-1.4-4.1-1.5-6.3c0-11,11.5-20,25.6-20
				c11.3-1,21.8,5.8,25.6,16.5c0.5,4.7,4.8,8.1,9.5,7.6c4.7-0.5,8.1-4.8,7.6-9.5c0-17.1,17.1-30.2,37.1-30.2s36.9,13.6,37.1,30.5
				c0.3,4.8,4.3,8.6,9.1,8.5c4.1,0.1,7.7-2.8,8.5-6.8c2.6-10.1,11.9-17,22.4-16.5c11.8-0.7,21.9,8.2,22.8,20c0,2.2-0.5,4.4-1.4,6.5
				c-1.3,4.5,1.4,9.2,5.9,10.5c2.7,0.8,5.6,0.1,7.7-1.6c3.8-4.3,9.4-6.8,15.2-6.7c9.6-0.7,18,6.4,18.9,16
				C366.2,87.3,357.8,94.6,348,94z M358.4,204.9H401c4.7,0,8.5,3.8,8.5,8.5v196.2c0,4.7-3.8,8.5-8.5,8.5h-42.7V204.9z M443.7,409.6
				c0,23.6-19.1,42.7-42.7,42.7h-42.7v-17.1H401c14.1,0,25.6-11.5,25.6-25.6V213.4c0-0.4,0-0.7,0-1.1c-0.6-13.7-11.9-24.5-25.6-24.5
				h-42.7v-17.1H401c23.6,0,42.7,19.1,42.7,42.7V409.6z"/>
			<path class="st0" d="M183.5,230.5h-8.5c-11.8,0-21.3,9.5-21.3,21.3v200.5h51.2V251.8C204.8,240,195.2,230.5,183.5,230.5z"/>
			<path class="st0" d="M251.7,230.5h-8.5c-11.8,0-21.3,9.5-21.3,21.3v200.5H273V251.8C273,240,263.5,230.5,251.7,230.5z"/>
		</g>
	</g>
</g>
</svg>
