<?xml version="1.0" encoding="iso-8859-1"?>
<!-- Generator: Adobe Illustrator 19.0.0, SVG Export Plug-In . SVG Version: 6.00 Build 0)  -->
<svg xmlns="http://www.w3.org/2000/svg" xmlns:xlink="http://www.w3.org/1999/xlink" version="1.1" id="Layer_1" x="0px" y="0px" viewBox="0 0 512.124 512.124" style="enable-background:new 0 0 512.124 512.124;" xml:space="preserve" width="512px" height="512px">
<g>
	<g>
		<g>
			<path d="M460.846,212.518c-0.513-32.623-27.107-58.799-59.733-58.795h-42.667v-44.117c14.699-3.788,25.131-16.828,25.6-32     c-0.74-19.119-16.804-34.038-35.925-33.365c-4.002-0.022-7.98,0.612-11.776,1.877c-4.173-18.15-20.55-30.852-39.168-30.379     c-10.5-0.065-20.63,3.871-28.331,11.008C251.756-0.139,216.105-8.081,189.218,9.01c-7.142,4.54-13.198,10.596-17.738,17.738     c-8.459-7.304-19.288-11.277-30.464-11.179c-19.356-0.894-36.78,11.653-42.069,30.293c-3.809-1.203-7.782-1.808-11.776-1.792     C68.002,43.4,51.918,58.396,51.247,77.565c0,0.014-0.001,0.027-0.001,0.041c0.12,11.843,6.654,22.689,17.067,28.331v380.587     c0,14.138,11.461,25.6,25.6,25.6h238.933c14.138,0,25.6-11.461,25.6-25.6v-17.067h42.667c32.99,0,59.733-26.744,59.733-59.733     V213.457C460.888,213.145,460.888,212.83,460.846,212.518z M341.379,251.857c0-11.782-9.551-21.333-21.333-21.333h-8.533     c-11.489-0.007-20.92,9.084-21.333,20.565V452.39h51.2v17.067h-256V452.39h51.2V251.857c0-11.782-9.551-21.333-21.333-21.333     h-8.533c-11.782,0-21.333,9.551-21.333,21.333v-31.915c6.302-4.248,13.733-6.507,21.333-6.485h8.533     c11.611,0.018,22.59,5.288,29.867,14.336c7.26-9.068,18.25-14.343,29.867-14.336h8.533c11.666,0.03,22.674,5.408,29.867,14.592     c7.193-9.184,18.201-14.562,29.867-14.592h8.533c11.631,0.013,22.623,5.321,29.867,14.421     c7.259-9.08,18.241-14.383,29.867-14.421h8.533c7.6-0.022,15.031,2.237,21.333,6.485V251.857z M348.121,93.99h-32.341     c-14.138,0-25.6,11.461-25.6,25.6v15.616c0,0.853,0,1.707,0,2.56c-0.802,9.907-6.957,18.583-16.043,22.613     c-0.848,0.401-1.734,0.715-2.645,0.939c-0.775,0.26-1.576,0.432-2.389,0.512h-2.304c-1.419,0.128-2.847,0.128-4.267,0h-2.219     c-0.785-0.08-1.559-0.252-2.304-0.512c-0.911-0.223-1.797-0.538-2.645-0.939c-9.218-3.934-15.518-12.628-16.384-22.613     c0-0.853,0-1.707,0-2.56V119.59c0-14.138-11.462-25.6-25.6-25.6h-17.067c-14.138,0-25.6,11.461-25.6,25.6v7.509     c0.193,4.431-2.715,8.403-6.997,9.557c-2.508,0.421-5.074-0.298-6.997-1.963c-1.95-1.624-3.076-4.033-3.072-6.571     c0-4.713-3.82-8.533-8.533-8.533s-8.533,3.82-8.533,8.533v33.109c0.02,2.788-1.088,5.466-3.072,7.424     c-0.314,0.35-0.69,0.639-1.109,0.853c-0.75,0.499-1.591,0.847-2.475,1.024h-1.877c-1.362-0.058-2.685-0.47-3.84-1.195     c-0.419-0.214-0.795-0.503-1.109-0.853c-1.984-1.958-3.092-4.636-3.072-7.424V119.59c0-14.138-11.461-25.6-25.6-25.6h-7.253     h-1.792c-9.071,0.014-16.568-7.071-17.067-16.128c0.639-9.778,9.081-17.188,18.859-16.555c5.897-0.054,11.506,2.547,15.275,7.083     c3.032,3.608,8.415,4.075,12.023,1.043c2.966-2.492,3.881-6.67,2.228-10.174c-0.925-1.979-1.419-4.131-1.451-6.315     c0-11.008,11.52-19.968,25.6-19.968c11.292-0.997,21.826,5.78,25.6,16.469c0.518,4.713,4.759,8.113,9.472,7.595     c4.713-0.518,8.113-4.759,7.595-9.472c0-17.067,17.067-30.208,37.12-30.208s36.949,13.653,37.12,30.464     c0.273,4.828,4.295,8.587,9.131,8.533c4.12,0.083,7.71-2.789,8.533-6.827c2.614-10.09,11.946-16.964,22.357-16.469     c11.774-0.684,21.918,8.206,22.784,19.968c-0.027,2.23-0.491,4.434-1.365,6.485c-1.268,4.539,1.384,9.247,5.923,10.514     c2.69,0.751,5.577,0.139,7.73-1.64c3.85-4.338,9.39-6.797,15.189-6.741c9.596-0.694,17.998,6.383,18.944,15.957     C366.251,87.316,357.837,94.626,348.121,93.99z M358.446,204.924h42.667c4.713,0,8.533,3.821,8.533,8.533v196.267     c0,4.713-3.82,8.533-8.533,8.533h-42.667V204.924z M443.779,409.724c0,23.564-19.102,42.667-42.667,42.667h-42.667v-17.067     h42.667c14.138,0,25.6-11.461,25.6-25.6V213.457c0.042-0.369,0.042-0.741,0-1.109c-0.594-13.703-11.884-24.504-25.6-24.491     h-42.667V170.79h42.667c23.564,0,42.667,19.103,42.667,42.667V409.724z" fill="#333333"/>
			<path d="M183.513,230.524h-8.533c-11.782,0-21.333,9.551-21.333,21.333V452.39h51.2V251.857     C204.846,240.075,195.295,230.524,183.513,230.524z" fill="#333333"/>
			<path d="M251.779,230.524h-8.533c-11.782,0-21.333,9.551-21.333,21.333V452.39h51.2V251.857     C273.113,240.075,263.561,230.524,251.779,230.524z" fill="#333333"/>
		</g>
	</g>
</g>
<g>
</g>
<g>
</g>
<g>
</g>
<g>
</g>
<g>
</g>
<g>
</g>
<g>
</g>
<g>
</g>
<g>
</g>
<g>
</g>
<g>
</g>
<g>
</g>
<g>
</g>
<g>
</g>
<g>
</g>
</svg>
