<?xml version="1.0" encoding="iso-8859-1"?>
<!-- Generator: Adobe Illustrator 19.0.0, SVG Export Plug-In . SVG Version: 6.00 Build 0)  -->
<svg xmlns="http://www.w3.org/2000/svg" xmlns:xlink="http://www.w3.org/1999/xlink" version="1.1" id="Capa_1" x="0px" y="0px" viewBox="0 0 512 512" style="enable-background:new 0 0 512 512;" xml:space="preserve" width="512px" height="512px">
<g>
	<g>
		<path d="M458.922,87.492c-33.732-27.623-77.592-38.536-120.336-29.94l-18.834,3.788c-42.303,8.508-85.201,8.508-127.503,0    l-18.834-3.788c-42.745-8.596-86.604,2.317-120.336,29.94C19.346,115.115,0,155.964,0,199.564    c0,43.599,19.346,84.448,53.079,112.071c8.852,7.249,18.404,13.343,28.447,18.24c-0.6-5.926-0.905-11.907-0.905-17.934    c0-23.663,4.641-46.634,13.794-68.275c8.835-20.888,21.476-39.64,37.573-55.737c16.097-16.097,34.849-28.738,55.737-37.573    c3.022-1.278,6.073-2.459,9.146-3.561c14.533-16.267,35.651-26.532,59.129-26.532c23.478,0,44.596,10.265,59.129,26.532    c3.073,1.102,6.124,2.283,9.146,3.561c20.888,8.835,39.64,21.476,55.737,37.573c16.097,16.097,28.738,34.849,37.573,55.737    c9.153,21.641,13.794,44.612,13.794,68.275c0,6.023-0.304,12.001-0.904,17.925c10.042-4.897,19.595-10.983,28.446-18.231    C492.654,284.011,512,243.163,512,199.563C512,155.964,492.654,115.115,458.922,87.492z" fill="#333333"/>
	</g>
</g>
<g>
	<g>
		<path d="M292.673,269.84c-10.976,5.751-23.447,9.024-36.674,9.024s-25.698-3.273-36.674-9.024    c-11.752,10.251-19.201,25.318-19.201,42.1c0,8.397,1.873,16.36,5.206,23.513c33.682-5.364,67.658-5.365,101.338,0    c3.333-7.152,5.206-15.116,5.206-23.513C311.874,295.157,304.426,280.09,292.673,269.84z" fill="#333333"/>
	</g>
</g>
<g>
	<g>
		<path d="M297.168,172.483c-8.827-13.373-23.98-22.221-41.168-22.221s-32.341,8.847-41.168,22.221    c-60.239,17.755-104.211,73.467-104.211,139.457c0,80.291,65.089,145.379,145.379,145.379s145.379-65.088,145.379-145.379    C401.379,245.95,357.407,190.238,297.168,172.483z M338.014,337.477c-2.935,9.436-7.483,18.12-13.277,25.786    c-15.993,21.159-41.48,34.552-68.737,34.552c-25.68,0-53.17-13.575-68.815-34.494c-5.77-7.715-10.272-16.432-13.199-25.844    c-2.509-8.067-3.861-16.644-3.861-25.536c0-8.893,1.352-17.469,3.861-25.536c7.302-23.475,24.417-42.61,46.535-52.662    c8.974,9.312,21.557,15.122,35.479,15.122s26.505-5.81,35.479-15.122c22.118,10.052,39.233,29.186,46.535,52.662    c2.509,8.067,3.861,16.644,3.861,25.536C341.875,320.834,340.523,329.411,338.014,337.477z" fill="#333333"/>
	</g>
</g>
<g>
</g>
<g>
</g>
<g>
</g>
<g>
</g>
<g>
</g>
<g>
</g>
<g>
</g>
<g>
</g>
<g>
</g>
<g>
</g>
<g>
</g>
<g>
</g>
<g>
</g>
<g>
</g>
<g>
</g>
</svg>
