<?xml version="1.0" encoding="utf-8"?>
<!-- Generator: Adobe Illustrator 22.0.1, SVG Export Plug-In . SVG Version: 6.00 Build 0)  -->
<svg version="1.1" id="Capa_1" xmlns="http://www.w3.org/2000/svg" xmlns:xlink="http://www.w3.org/1999/xlink" x="0px" y="0px"
	 viewBox="0 0 512 512" style="enable-background:new 0 0 512 512;" xml:space="preserve">
<style type="text/css">
	.st0{fill:#FFFFFF;}
</style>
<g>
	<g>
		<path class="st0" d="M458.9,87.5C425.2,59.9,381.3,49,338.6,57.6l-18.8,3.8c-42.3,8.5-85.2,8.5-127.5,0l-18.8-3.8
			C130.7,49,86.8,59.9,53.1,87.5C19.3,115.1,0,156,0,199.6c0,43.6,19.3,84.4,53.1,112.1c8.9,7.2,18.4,13.3,28.4,18.2
			c-0.6-5.9-0.9-11.9-0.9-17.9c0-23.7,4.6-46.6,13.8-68.3c8.8-20.9,21.5-39.6,37.6-55.7s34.8-28.7,55.7-37.6c3-1.3,6.1-2.5,9.1-3.6
			c14.5-16.3,35.7-26.5,59.1-26.5s44.6,10.3,59.1,26.5c3.1,1.1,6.1,2.3,9.1,3.6c20.9,8.8,39.6,21.5,55.7,37.6s28.7,34.8,37.6,55.7
			c9.2,21.6,13.8,44.6,13.8,68.3c0,6-0.3,12-0.9,17.9c10-4.9,19.6-11,28.4-18.2C492.7,284,512,243.2,512,199.6
			C512,156,492.7,115.1,458.9,87.5z"/>
	</g>
</g>
<g>
	<g>
		<path class="st0" d="M292.7,269.8c-11,5.8-23.4,9-36.7,9s-25.7-3.3-36.7-9c-11.8,10.3-19.2,25.3-19.2,42.1
			c0,8.4,1.9,16.4,5.2,23.5c33.7-5.4,67.7-5.4,101.3,0c3.3-7.2,5.2-15.1,5.2-23.5C311.9,295.2,304.4,280.1,292.7,269.8z"/>
	</g>
</g>
<g>
	<g>
		<path class="st0" d="M297.2,172.5c-8.8-13.4-24-22.2-41.2-22.2s-32.3,8.8-41.2,22.2c-60.2,17.8-104.2,73.5-104.2,139.5
			c0,80.3,65.1,145.4,145.4,145.4s145.4-65.1,145.4-145.4C401.4,245.9,357.4,190.2,297.2,172.5z M338,337.5
			c-2.9,9.4-7.5,18.1-13.3,25.8c-16,21.2-41.5,34.6-68.7,34.6c-25.7,0-53.2-13.6-68.8-34.5c-5.8-7.7-10.3-16.4-13.2-25.8
			c-2.5-8.1-3.9-16.6-3.9-25.5c0-8.9,1.4-17.5,3.9-25.5c7.3-23.5,24.4-42.6,46.5-52.7c9,9.3,21.6,15.1,35.5,15.1s26.5-5.8,35.5-15.1
			c22.1,10.1,39.2,29.2,46.5,52.7c2.5,8.1,3.9,16.6,3.9,25.5C341.9,320.8,340.5,329.4,338,337.5z"/>
	</g>
</g>
</svg>
