<?xml version="1.0" encoding="utf-8"?>
<!-- Generator: Adobe Illustrator 22.0.1, SVG Export Plug-In . SVG Version: 6.00 Build 0)  -->
<svg version="1.1" id="Layer_1" xmlns="http://www.w3.org/2000/svg" xmlns:xlink="http://www.w3.org/1999/xlink" x="0px" y="0px"
	 viewBox="0 0 448 512" style="enable-background:new 0 0 448 512;" xml:space="preserve">
<style type="text/css">
	.st0{fill:#476401;}
</style>
<path class="st0" d="M162.4,196c4.8-4.9,6.2-5.1,36.4-5.1c27.2,0,28.1,0.1,32.1,2.1c5.8,2.9,8.3,7,8.3,13.6c0,5.9-2.4,10-7.6,13.4
	c-2.8,1.8-4.5,1.9-31.1,2.1c-16.4,0.1-29.5-0.2-31.5-0.8C158.7,218.4,154.9,203.6,162.4,196L162.4,196z M223.8,290.5
	c-53.9,0-55.8,0.2-60.2,4.1c-3.5,3.1-5.7,9.4-5.1,13.9c0.7,4.7,4.8,10.1,9.2,12c2.2,1,14.1,1.7,56.3,1.2l47.9-0.6l9.2-1.5
	c9-5.1,10.5-17.4,3.1-24.4C278.9,290.5,279.2,290.5,223.8,290.5L223.8,290.5z M447.2,420.6c-3.5,28.4-23,50.4-51.1,57.5
	c-7.2,1.8-9.7,1.9-172.9,1.8c-157.8,0-165.9-0.1-172-1.8c-8.4-2.2-15.6-5.5-22.3-10c-5.6-3.8-13.9-11.8-17-16.4
	c-3.8-5.6-8.2-15.3-10-22C0.1,423,0,420.3,0,256.3C0,93.2,0,89.7,1.8,82.6C8.1,57.9,27.7,39,53,33.4c7.3-1.6,332.1-1.9,340-0.3
	c21.2,4.3,37.9,17.1,47.6,36.4c7.7,15.3,7-1.5,7.3,180.6C448.1,365.9,447.9,414.6,447.2,420.6z M361.8,235.4
	c-1.1-5-4.2-9.6-7.7-11.5c-1.1-0.6-8-1.3-15.5-1.7c-12.4-0.6-13.8-0.8-17.8-3.1c-6.2-3.6-7.9-7.6-8-18.3c0-20.4-8.5-39.4-25.3-56.5
	c-12-12.2-25.3-20.5-40.6-25.1c-3.6-1.1-11.8-1.5-39.2-1.8c-42.9-0.5-52.5,0.4-67.1,6.2c-27,10.7-46.3,33.4-53.4,62.4
	c-1.3,5.4-1.6,14.2-1.9,64.3c-0.4,62.8,0,72.1,4,84.5c9.7,30.7,37.1,53.4,64.6,58.4c9.2,1.7,122.2,2.1,133.7,0.5
	c20.1-2.7,35.9-10.8,50.7-25.9c10.7-10.9,17.4-22.8,21.8-38.5C363.3,318.4,363,240.9,361.8,235.4L361.8,235.4z"/>
</svg>
