<?xml version="1.0" encoding="iso-8859-1"?>
<!-- Generator: Adobe Illustrator 19.0.0, SVG Export Plug-In . SVG Version: 6.00 Build 0)  -->
<svg xmlns="http://www.w3.org/2000/svg" xmlns:xlink="http://www.w3.org/1999/xlink" version="1.1" id="Capa_1" x="0px" y="0px" viewBox="0 0 510.063 510.063" style="enable-background:new 0 0 510.063 510.063;" xml:space="preserve" width="512px" height="512px">
<g>
	<g>
		<g>
			<path d="M403.564,283.581c-6.361-2.129-13.17-2.551-19.746-1.225c3.588,8.461,5.871,17.418,6.772,26.564h35.991     c-2.744-10.625-10.13-19.448-20.107-24.018L403.564,283.581z" fill="#333333"/>
			<path d="M299.823,226.634c6.296,0.015,12.574,0.678,18.734,1.98c-12.721-23.761-37.497-38.581-64.449-38.551     c-3.225,0.01-6.445,0.241-9.638,0.692l-8.8,8.801c22.264,1.571,43.168,11.29,58.72,27.299     C296.195,226.75,297.997,226.634,299.823,226.634z" fill="#333333"/>
			<path d="M153.333,281.888l-27.035,27.032h82.614c0.547-5.362,1.568-10.666,3.051-15.848c-15.388-7.682-32.362-11.648-49.56-11.58     C158.939,281.491,156.049,281.648,153.333,281.888z" fill="#333333"/>
			<path d="M221.805,217.411l-3.942-0.049l-9.737,9.735c14.812,1.38,29.045,6.435,41.408,14.708     c6.811-4.556,14.217-8.151,22.01-10.684c-12.364-8.859-27.191-13.625-42.401-13.629     C228.171,217.491,225.501,217.456,221.805,217.411z" fill="#333333"/>
			<path d="M353.832,308.92h18.466c-3.168-25.117-19.114-46.802-42.145-57.313c-0.379-0.174-0.746-0.374-1.098-0.598     c-9.223-4.015-19.173-6.088-29.232-6.089c-36.811,0.121-67.838,27.491-72.549,64h18.54c2.273-13.618,9.643-25.861,20.613-34.243     l0.021-0.025l0.032-0.021l0.048-0.041l0.056-0.027c9.489-7.413,21.198-11.414,33.239-11.357c6.597,0.007,13.141,1.192,19.321,3.5     l3.455,1.554C339.106,275.799,350.803,291.028,353.832,308.92z" fill="#333333"/>
			<path d="M312.135,283.581c-3.955-1.393-8.119-2.1-12.313-2.089c-8.01-0.045-15.8,2.617-22.107,7.554l-0.046,0.022l-0.035,0.04     c-6.519,4.912-11.167,11.901-13.177,19.813h70.695c-2.744-10.625-10.131-19.448-20.108-24.018L312.135,283.581z" fill="#333333"/>
			<path d="M234.619,254.147c-10.797-6.073-22.981-9.251-35.368-9.227c-3.244,0.002-6.482,0.25-9.689,0.74l-17.869,17.869     c16.336,1.024,32.32,5.195,47.074,12.284C222.936,267.837,228.28,260.534,234.619,254.147z" fill="#333333"/>
			<path d="M320.072,37.563L165.082,0.259c-3.147-0.767-6.465,0.195-8.714,2.527L11.671,152.616c-2.183,2.246-3.057,5.458-2.313,8.5     l36.393,150.777l60.216-60.219L320.072,37.563z M72.625,266.536c-1.248,2.079-3.271,3.576-5.624,4.161     c-2.352,0.593-4.843,0.225-6.922-1.024c-2.079-1.248-3.576-3.274-4.158-5.628L30.064,160.598     c-1.207-4.891,1.771-9.836,6.658-11.056c4.887-1.221,9.84,1.744,11.074,6.628l25.857,103.446     C74.243,261.968,73.873,264.458,72.625,266.536z M77.715,132.527l-6.464,6.464c-3.576,3.532-9.333,3.514-12.888-0.04     c-3.554-3.554-3.573-9.311-0.041-12.888l6.464-6.464c3.576-3.532,9.333-3.514,12.888,0.04     C81.229,123.193,81.247,128.95,77.715,132.527z" fill="#333333"/>
			<path d="M147.162,505.366c1.615,2.899,4.673,4.696,7.991,4.696h216.197c3.318,0,6.376-1.797,7.991-4.696l78.661-141.589h-389.5     L147.162,505.366z M208.394,473.491h9.143c5.049,0,9.143,4.093,9.143,9.143c0,5.049-4.093,9.143-9.143,9.143h-9.143     c-5.049,0-9.143-4.093-9.143-9.143C199.251,477.585,203.345,473.491,208.394,473.491z M112.26,383.366     c2.079-1.249,4.569-1.62,6.922-1.032c2.353,0.588,4.375,2.086,5.623,4.166l54.857,91.429c2.599,4.329,1.196,9.946-3.134,12.545     c-4.33,2.599-9.946,1.196-12.545-3.134l-54.857-91.429c-1.248-2.079-1.619-4.569-1.031-6.921     C108.683,386.637,110.181,384.614,112.26,383.366z" fill="#333333"/>
			<path d="M374.708,266.034c11.7-3.753,24.314-3.517,35.865,0.672l3.455,1.554c16.506,7.539,28.204,22.768,31.232,40.661h18.466     c-3.168-25.117-19.114-46.802-42.145-57.313c-0.379-0.174-0.746-0.374-1.098-0.598c-9.223-4.015-19.173-6.088-29.232-6.089     c-10.106,0.015-20.094,2.163-29.314,6.301C366.712,255.687,370.994,260.653,374.708,266.034z" fill="#333333"/>
			<path d="M178.441,230.922L363.939,45.429c3.531-3.58,3.511-9.337-0.044-12.893c-3.555-3.555-9.313-3.575-12.893-0.045     L53.617,329.885c-3.562,3.573-3.562,9.355,0,12.929c3.615,3.46,9.313,3.46,12.929,0l111.772-111.769L178.441,230.922z" fill="#333333"/>
			<path d="M491.439,327.206H108.012l-18.288,18.286h383.813l0.016,0.002l17.886-0.002c2.494,0.034,4.896-0.934,6.67-2.688     c1.817-1.655,2.854-3.998,2.857-6.455C500.851,331.196,496.591,327.108,491.439,327.206z" fill="#333333"/>
		</g>
	</g>
</g>
<g>
</g>
<g>
</g>
<g>
</g>
<g>
</g>
<g>
</g>
<g>
</g>
<g>
</g>
<g>
</g>
<g>
</g>
<g>
</g>
<g>
</g>
<g>
</g>
<g>
</g>
<g>
</g>
<g>
</g>
</svg>
