<?xml version="1.0" encoding="utf-8"?>
<!-- Generator: Adobe Illustrator 22.0.1, SVG Export Plug-In . SVG Version: 6.00 Build 0)  -->
<svg version="1.1" id="Layer_1" xmlns="http://www.w3.org/2000/svg" xmlns:xlink="http://www.w3.org/1999/xlink" x="0px" y="0px"
	 viewBox="0 0 512 512" style="enable-background:new 0 0 512 512;" xml:space="preserve">
<style type="text/css">
	.st0{fill:#FFFFFF;}
</style>
<g>
	<g>
		<path class="st0" d="M304.9,0H218c-24.9,0-44.5,20.6-44.5,45.6v25.6h38.7V45.6c0-3.6,2.2-6.9,5.8-6.9h86.8c3.6,0,6.4,3.3,6.4,6.9
			v25.6h38.7V45.6C349.9,20.6,329.8,0,304.9,0z"/>
	</g>
</g>
<g>
	<g>
		<polygon class="st0" points="462.5,159.8 424.5,443.2 494,394.1 		"/>
	</g>
</g>
<g>
	<g>
		<path class="st0" d="M69.1,94.4l-51,362h116.3l-17.8-196.4h-6.7c-6.4,0-11.6-5.2-11.6-11.6s5.2-11.6,11.6-11.6H200
			c0.1-1.5,0.2-1,0.3-1.4l29.7-86.6c1.6-4.7,6-8,11-8h39.3c6.4,0,11.6,5.2,11.6,11.6s-5.2,11.6-11.6,11.6h-31l-24.8,72.7h87.3
			c6.4,0,11.6,5.2,11.6,11.6s-5.2,11.6-11.6,11.6h-6.7l-17.8,196.4h112.1c0-0.2,0-0.5,0.1-0.7l48.3-360c0.1-0.4,0.1-0.8,0.2-1.3
			L69.1,94.4L69.1,94.4z"/>
	</g>
</g>
<g>
	<g>
		<polygon class="st0" points="139.8,259.9 162.6,512 259,512 281.8,259.9 		"/>
	</g>
</g>
</svg>
