<?xml version="1.0" encoding="utf-8"?>
<!-- Generator: Adobe Illustrator 22.0.1, SVG Export Plug-In . SVG Version: 6.00 Build 0)  -->
<svg version="1.1" id="Layer_1" xmlns="http://www.w3.org/2000/svg" xmlns:xlink="http://www.w3.org/1999/xlink" x="0px" y="0px"
	 viewBox="0 0 512 512" style="enable-background:new 0 0 512 512;" xml:space="preserve">
<style type="text/css">
	.st0{fill:#FFFFFF;}
</style>
<g>
	<path class="st0" d="M506.1,163.4c-65-65-151.6-104.4-250.1-104.4S68.9,98.5,5.9,163.4C2,167.4,0,171.3,0,177.2s2,9.8,5.9,13.8
		l27.6,27.6c7.9,7.9,19.7,7.9,27.6,0c49.2-49.2,118.2-80.7,195-80.7s145.7,31.5,195,80.7c7.9,7.9,19.7,7.9,27.6,0l27.6-27.6
		c3.9-3.9,5.9-7.9,5.9-13.8S510,165.4,506.1,163.4z"/>
	<path class="st0" d="M256,216.6c-55.1,0-102.4,21.7-137.8,57.1c-7.9,7.9-7.9,19.7,0,27.6l27.6,27.6c7.9,7.9,19.7,7.9,27.6,0
		c21.7-21.7,51.2-33.5,82.7-33.5s61,13.8,82.7,33.5c7.9,7.9,19.7,7.9,27.6,0l27.6-27.6c7.9-7.9,7.9-19.7,0-27.6
		C358.4,238.3,311.1,216.6,256,216.6z"/>
	<circle class="st0" cx="256" cy="413.5" r="39.4"/>
</g>
</svg>
