<?xml version="1.0" encoding="utf-8"?>
<!-- Generator: Adobe Illustrator 22.0.1, SVG Export Plug-In . SVG Version: 6.00 Build 0)  -->
<svg version="1.1" id="Capa_1" xmlns="http://www.w3.org/2000/svg" xmlns:xlink="http://www.w3.org/1999/xlink" x="0px" y="0px"
	 viewBox="0 0 512 512" style="enable-background:new 0 0 512 512;" xml:space="preserve">
<style type="text/css">
	.st0{fill:#FFFFFF;}
</style>
<g>
	<g>
		<path class="st0" d="M291.5,321.4c28.8-6.4,55.1-20.3,75.9-40.4c28.9-27.9,47.1-78.4,48.6-134.9c1.5-56.5-13.8-108.2-41.1-138.4
			l-2.3-2.6c-1.4-1.5-4.7-5.2-26.7-5.2H166.1c-22.1,0-25.3,3.6-26.7,5.2l-2.3,2.6C109.8,37.9,94.5,89.7,96,146.1
			c1.6,56.5,19.7,106.9,48.6,134.8c20.8,20.1,47,34,75.8,40.4c6.8,1.5,12,7.5,12,13.7v119.5c0,5.8-4.7,10.6-10.6,10.6h-59
			c-12.9,0-23.4,10.5-23.4,23.4S150,512,163,512h77.5h31H349c12.9,0,23.4-10.5,23.4-23.4s-10.5-23.4-23.4-23.4h-59
			c-5.8,0-10.6-4.7-10.6-10.6V335.1C279.4,328.9,284.7,322.8,291.5,321.4z M334.8,247.2c-20.2,19.5-48.9,30.7-78.8,30.7
			c-29.9,0-58.5-11.2-78.7-30.7c-37.1-35.8-46.4-133-18.2-189c2.9-5.8,13.2-11.4,21.2-11.4h151.4c7.9,0,18.2,5.5,21.2,11.4
			C381.1,114.3,371.8,211.4,334.8,247.2z"/>
		<path class="st0" d="M353.9,137h-25.7c0.5,29.7-7.5,59.1-23.6,84.7c-9.1,14.4-32,1.1-22.8-13.4c13.7-21.8,20.6-46.4,20-71.3H158.1
			c-1.1,40,9,81.5,29.9,101.7c34.8,33.6,101.3,33.6,136.1,0C345,218.6,355.1,177,353.9,137z"/>
	</g>
</g>
</svg>
